<?xml version="1.0" standalone="no"?>
<!DOCTYPE svg PUBLIC "-//W3C//DTD SVG 20010904//EN"
 "http://www.w3.org/TR/2001/REC-SVG-20010904/DTD/svg10.dtd">
<svg version="1.0" xmlns="http://www.w3.org/2000/svg"
 width="258.000000pt" height="195.000000pt" viewBox="0 0 258.000000 195.000000"
 preserveAspectRatio="xMidYMid meet">

<g transform="translate(0.000000,195.000000) scale(0.100000,-0.100000)"
fill="#000000" stroke="none">
<path d="M1872 1370 c0 -19 2 -27 5 -17 2 9 2 25 0 35 -3 9 -5 1 -5 -18z"/>
<path d="M1869 1098 c4 -28 6 -29 9 -9 2 13 0 27 -5 32 -6 6 -7 -3 -4 -23z"/>
<path d="M1181 1054 c0 -11 3 -14 6 -6 3 7 2 16 -1 19 -3 4 -6 -2 -5 -13z"/>
<path d="M1574 952 c3 -5 0 -13 -6 -15 -9 -4 -10 -6 -1 -6 17 -1 25 16 12 25
-7 4 -9 3 -5 -4z"/>
<path d="M1360 926 c0 -2 8 -10 18 -17 15 -13 16 -12 3 4 -13 16 -21 21 -21
13z"/>
<path d="M1535 920 c-3 -5 -1 -10 4 -10 6 0 11 5 11 10 0 6 -2 10 -4 10 -3 0
-8 -4 -11 -10z"/>
<path d="M1492 875 c-12 -14 -18 -25 -13 -25 5 0 16 11 25 25 9 14 15 25 13
25 -2 0 -13 -11 -25 -25z"/>
<path d="M1794 878 l-19 -23 23 19 c21 18 27 26 19 26 -2 0 -12 -10 -23 -22z"/>
<path d="M1391 887 c2 -1 15 -11 29 -22 l25 -20 -19 23 c-11 12 -24 22 -29 22
-6 0 -8 -1 -6 -3z"/>
<path d="M1736 842 l-19 -27 24 22 c12 12 21 24 18 27 -2 2 -13 -8 -23 -22z"/>
<path d="M1627 776 c-4 -10 -1 -13 8 -9 8 3 12 9 9 14 -7 12 -11 11 -17 -5z"/>
<path d="M1495 700 c-3 -6 1 -7 9 -4 18 7 21 14 7 14 -6 0 -13 -4 -16 -10z"/>
<path d="M1061 696 c10 -9 89 -46 89 -41 0 5 -75 45 -86 45 -4 0 -5 -2 -3 -4z"/>
<path d="M1395 650 c3 -5 8 -10 11 -10 2 0 4 5 4 10 0 6 -5 10 -11 10 -5 0 -7
-4 -4 -10z"/>
<path d="M1190 640 c-9 -6 -10 -10 -3 -10 6 0 15 5 18 10 8 12 4 12 -15 0z"/>
<path d="M1235 620 c-3 -6 1 -7 9 -4 18 7 21 14 7 14 -6 0 -13 -4 -16 -10z"/>
<path d="M1273 615 c-28 -12 -28 -12 12 -11 22 1 48 7 58 12 16 9 14 11 -11
11 -17 0 -43 -6 -59 -12z"/>
<path d="M909 328 c-3 -216 -2 -233 14 -236 16 -3 30 37 21 61 -12 33 15 24
56 -18 27 -28 53 -45 67 -45 13 0 23 2 23 4 0 3 -24 27 -52 55 l-53 50 50 50
49 51 -29 0 c-20 0 -41 -11 -67 -37 l-38 -37 -1 39 c-2 147 -4 160 -21 163
-16 3 -18 -7 -19 -100z"/>
<path d="M2240 261 c0 -164 1 -171 20 -171 17 0 20 7 20 47 l0 47 48 -47 c28
-27 57 -47 70 -47 12 0 22 3 22 6 0 3 -22 27 -50 52 -27 25 -50 49 -50 53 0 5
21 28 48 53 46 45 47 46 20 46 -18 0 -42 -13 -68 -36 l-39 -36 -3 99 c-3 84
-5 98 -20 101 -17 3 -18 -10 -18 -167z"/>
<path d="M155 398 c-3 -8 -4 -79 -3 -158 3 -142 4 -145 26 -148 21 -3 22 0 22
67 l0 71 75 0 75 0 0 -70 c0 -63 2 -70 19 -70 19 0 20 9 23 137 4 168 2 185
-20 181 -14 -3 -18 -17 -20 -71 l-3 -67 -74 0 -74 0 -3 67 c-2 55 -6 68 -21
71 -9 2 -19 -3 -22 -10z"/>
<path d="M1530 250 c0 -153 1 -160 20 -160 18 0 20 7 20 70 0 66 1 70 23 70
17 0 31 -16 62 -70 31 -54 45 -70 63 -70 12 0 22 3 22 6 0 4 -19 36 -41 72
-30 47 -38 67 -29 70 32 11 60 52 60 86 0 61 -45 86 -151 86 l-49 0 0 -160z
m140 102 c18 -14 21 -25 17 -44 -7 -27 -30 -38 -84 -38 -33 0 -33 0 -33 50 l0
50 39 0 c23 0 48 -8 61 -18z"/>
<path d="M490 297 c-30 -15 -34 -43 -5 -39 11 2 34 6 52 9 24 4 34 1 42 -15
13 -25 6 -32 -35 -32 -49 0 -83 -17 -94 -46 -23 -61 47 -112 111 -80 16 8 29
10 29 5 0 -5 10 -9 21 -9 21 0 21 4 17 87 -4 79 -7 88 -32 110 -30 26 -68 29
-106 10z m95 -129 c-15 -51 -87 -66 -93 -20 -4 25 23 40 71 41 25 1 28 -2 22
-21z"/>
<path d="M733 300 c-30 -12 -63 -67 -63 -105 0 -79 80 -132 153 -101 20 8 37
22 37 30 0 19 -23 21 -50 4 -26 -17 -70 0 -89 33 -16 29 -10 69 15 93 18 19
65 21 81 5 13 -13 43 -5 43 11 0 13 -61 40 -87 39 -10 0 -28 -4 -40 -9z"/>
<path d="M1174 301 c-58 -25 -84 -118 -48 -170 36 -50 112 -60 164 -21 20 15
23 21 12 32 -10 10 -18 9 -41 -5 -38 -22 -66 -22 -91 3 -34 34 -24 40 59 40
44 0 83 5 86 10 9 15 -13 75 -34 94 -22 20 -78 29 -107 17z m90 -53 c15 -25 5
-29 -60 -26 l-59 3 23 23 c27 27 79 27 96 0z"/>
<path d="M1430 301 c-8 -5 -27 -7 -42 -4 l-29 6 3 -104 c3 -96 4 -104 23 -104
21 0 20 -3 24 122 1 29 27 53 57 53 19 0 25 5 22 18 -4 19 -36 27 -58 13z"/>
<path d="M1813 296 c-23 -11 -31 -20 -27 -31 4 -10 12 -14 23 -9 35 15 77 16
90 0 18 -22 5 -36 -35 -36 -60 0 -94 -25 -94 -71 0 -37 33 -63 78 -61 20 1 52
2 70 3 l32 0 0 84 c0 64 -4 88 -17 104 -23 28 -79 35 -120 17z m97 -124 c0
-50 -91 -72 -98 -24 -4 25 23 40 71 41 20 1 27 -4 27 -17z"/>
<path d="M2070 301 c-8 -6 -27 -7 -42 -4 l-28 6 0 -107 c0 -99 1 -106 20 -106
18 0 20 7 20 68 0 84 17 115 63 110 37 -4 45 -22 46 -115 1 -56 3 -63 21 -63
18 0 20 7 20 71 0 105 -26 149 -90 149 -8 0 -22 -4 -30 -9z"/>
</g>
</svg>
